<?xml version="1.0" encoding="utf-8"?>
<svg id="master-artboard" viewBox="0 0 1120.75830078125 798.1561889648438" version="1.1" xmlns="http://www.w3.org/2000/svg" x="0px" y="0px" style="enable-background:new 0 0 1096 780;" width="1120.75830078125px" height="798.1561889648438px"><rect id="ee-background" x="0" y="0" width="1120.75830078125" height="798.1561889648438" style="fill: white; fill-opacity: 0; pointer-events: none;"/>

<path d="M 0 0 H 1096 V 780 H 0 V 0 Z" class="st0" style="fill: rgb(255, 255, 255);" transform="matrix(1.0903593301773071, 0, 0, 1.0903593301773071, -71.9645767211914, -53.7264289855957)"/>
<defs>
	<filter id="Adobe_OpacityMaskFilter" filterUnits="userSpaceOnUse" x="449.6" y="609.7" width="393.1" height="149.8">
		
			<feColorMatrix type="matrix" values="-1 0 0 0 1  0 -1 0 0 1  0 0 -1 0 1  0 0 0 1 0" color-interpolation-filters="sRGB" result="source"/>
		<feFlood style="flood-color:white;flood-opacity:1" result="back"/>
		<feBlend in="source" in2="back" mode="normal"/>
	</filter>
</defs>
<mask maskUnits="userSpaceOnUse" x="449.6" y="609.7" width="393.1" height="149.8" id="SVGID_1_">
	<g class="st1" style="filter: url('#Adobe_OpacityMaskFilter');">
	</g>
</mask>
<linearGradient id="SVGID_2_" gradientUnits="userSpaceOnUse" x1="646.1115" y1="822.2909" x2="646.1115" y2="582.6153" gradientTransform="matrix(1 0 0 0.6252 0 245.4536)">
	<stop offset="0" style="stop-color:#F4EB30;stop-opacity:0"/>
	<stop offset="0.3978" style="stop-color:#F4E62F;stop-opacity:0"/>
	<stop offset="0.5359" style="stop-color:#F4E42E;stop-opacity:0.2293"/>
	<stop offset="0.6606" style="stop-color:#F5DD2B;stop-opacity:0.4364"/>
	<stop offset="0.7802" style="stop-color:#F6D126;stop-opacity:0.6349"/>
	<stop offset="0.8958" style="stop-color:#F7C020;stop-opacity:0.827"/>
	<stop offset="1" style="stop-color:#FAAC1A"/>
</linearGradient>
<path d="M 842.599976 684.599976 A 196.5 74.900002 0 0 1 646.099976 759.499977 A 196.5 74.900002 0 0 1 449.599976 684.599976 A 196.5 74.900002 0 0 1 646.099976 609.699974 A 196.5 74.900002 0 0 1 842.599976 684.599976 Z" class="st2" style="mask: url('#SVGID_1_'); fill: url('#SVGID_2_');" transform="matrix(1, 0, 0, 1, -49.51690673828125, 79.22705841064453)"/>
<path class="st3" d="M386.4,472.1L386.4,472.1c-8.2,2.9-17.3-1.4-20.2-9.6L226.3,67.8c-2.9-8.2,1.4-17.3,9.6-20.2l0,0&#10;&#9;c8.2-2.9,17.3,1.4,20.2,9.6l139.9,394.7C399,460.1,394.6,469.2,386.4,472.1z" style="fill: rgb(94, 58, 25);" transform="matrix(1, 0, 0, 1, -49.51690673828125, 79.22705841064453)"/>
<path class="st4" d="M420.9,207.6l-225.7,80c-15.6,5.5-32.8-2.7-38.3-18.3l-36.7-103.6c-5.5-15.6,2.7-32.8,18.3-38.3l225.7-80&#10;&#9;c15.6-5.5,32.8,2.7,38.3,18.3l36.7,103.6C444.7,184.9,436.5,202.1,420.9,207.6z" style="fill: rgb(255, 255, 255); stroke: rgb(96, 57, 19); stroke-width: 9.5994; stroke-miterlimit: 10;" transform="matrix(1, 0, 0, 1, -49.51690673828125, 79.22705841064453)"/>
<g transform="matrix(1, 0, 0, 1, -49.51690673828125, 79.22705841064453)">
	<path class="st3" d="M167,226.8c0.9-0.5,1.8-0.9,2.8-1.1c1-0.2,2-0.3,3-0.3c1,0,1.9,0.2,2.8,0.5c4.9,1.5,9,2.2,12.2,2.1&#10;&#9;&#9;c3.2-0.1,5.3-1,6.2-2.7c0.4-0.6,0.3-1.1-0.2-1.7c-0.5-0.6-1.4-1.1-2.5-1.6c-1.1-0.5-2.5-1.1-4.1-1.6c-1.6-0.5-3.3-1.1-5.1-1.7&#10;&#9;&#9;c-1.8-0.6-3.6-1.2-5.4-1.8c-1.8-0.6-3.5-1.3-5.1-2.1c-1.7-0.8-3.3-1.8-4.8-3c-1.5-1.2-2.9-2.6-4-4.2c-1.2-1.6-2.1-3.5-2.8-5.5&#10;&#9;&#9;c-0.7-2-1.2-4.3-1.3-6.7c-0.2-2-0.2-4.3,0.1-6.8c0.3-2.5,0.8-5,1.5-7.5c0.7-2.5,1.6-4.9,2.6-7.3c1.1-2.3,2.2-4.4,3.5-6.2&#10;&#9;&#9;c0.4-0.7,1-1.4,1.8-2.2c0.7-0.8,1.6-1.4,2.7-2c1-0.6,2.2-1.1,3.5-1.4c1.3-0.3,2.8-0.5,4.4-0.5c2.4,0.2,4.9,0.6,7.5,1.2&#10;&#9;&#9;c2.6,0.6,4.8,1.4,6.8,2.6c1.3,0.7,2.3,1.5,3.2,2.3c0.8,0.9,1.5,1.8,2.1,2.7c0.5,0.9,1,1.9,1.3,2.8c0.3,0.9,0.6,1.8,0.9,2.6&#10;&#9;&#9;c0.4,1.6,0.7,3.3,0.9,5.2c0.3,1.9,0.5,3.8,0.6,5.8c0.2,2,0.3,3.9,0.3,5.7c0,1.8,0,3.5-0.1,4.9c-0.2,1.3-0.5,2.2-1,2.7&#10;&#9;&#9;c-0.5,0.5-1.4,0.7-2.7,0.5c-7.3-0.6-11.5-3.2-12.6-8c-0.3-1-0.5-2.1-0.6-3.5c-0.2-1.3-0.3-2.7-0.5-4c-0.2-1.3-0.3-2.6-0.5-3.8&#10;&#9;&#9;c-0.2-1.2-0.4-2.2-0.7-2.9c-0.3-0.7-0.7-1-1.1-1c-0.4,0-1,0.5-1.6,1.6c-0.6,0.8-1.2,1.8-1.8,3.1c-0.6,1.3-1.1,2.8-1.6,4.3&#10;&#9;&#9;c-0.5,1.6-0.8,3.2-1,5c-0.2,1.7-0.2,3.4,0.1,5c0.3,1.6,0.8,3.1,1.5,4.4c0.8,1.4,1.9,2.4,3.3,3.2c1.9,1.1,3.9,2,6,2.8&#10;&#9;&#9;c2.1,0.8,4.2,1.5,6.3,2.2c2.1,0.7,4.1,1.4,6,2.2c1.9,0.7,3.5,1.6,4.9,2.6c1.4,1,2.5,2.2,3.2,3.5c0.7,1.3,1,2.9,0.8,4.8&#10;&#9;&#9;c-0.1,1.3-0.3,2.8-0.7,4.4c-0.4,1.6-1.1,3.2-2.2,4.8c-1,1.6-2.5,3.1-4.2,4.6c-1.8,1.5-4.1,2.7-6.9,3.7c-3.7,1.4-7.7,1.8-11.8,1.3&#10;&#9;&#9;c-4.2-0.5-8.8-2.2-14-5.2c-2.7-1.4-4.3-2.6-4.7-3.5c-0.3-1.1-0.2-2,0.5-3C165.3,227.9,166.1,227.3,167,226.8z" style="fill: rgb(94, 58, 25);"/>
	<path class="st3" d="M240.9,154.6c1.5,1.7,2.8,3.6,4,6c1.9,3.9,3.4,8.3,4.7,13.1c1.3,4.9,2.2,9.8,2.6,14.9c0.4,5.1,0.4,10-0.1,14.8&#10;&#9;&#9;c-0.5,4.8-1.7,9.1-3.6,13c-1.3,2.4-2.9,4.2-4.8,5.4c-1.9,1.3-4.2,2.2-7,2.7c-1.9,0.4-3.8,0.6-5.9,0.8c-2,0.1-4,0-5.9-0.4&#10;&#9;&#9;c-1.5-0.4-3.1-0.9-4.8-1.8c-1.6-0.8-3.1-1.9-4.3-3.2c-2-2.2-3.8-4.8-5.4-7.9c-1.6-3-3-6.4-4.1-9.9c-1.1-3.6-2-7.3-2.5-11.3&#10;&#9;&#9;c-0.6-3.9-0.8-7.9-0.7-11.8c0.1-3.9,0.6-7.8,1.4-11.6c0.8-3.8,2.1-7.3,3.7-10.6c1.2-2.1,2.8-3.8,4.8-5.4c2-1.5,4.2-2.5,6.4-2.7&#10;&#9;&#9;c2.9-0.4,5.7-0.5,8.5-0.2c2.8,0.3,5.2,0.9,7.3,1.8C237.5,151.6,239.4,153,240.9,154.6z M223.6,165.2c-0.8,1.8-1.4,4-1.9,6.8&#10;&#9;&#9;c-0.5,2.7-0.7,5.7-0.9,9c-0.1,3.2-0.1,6.3,0.2,9.2c0.2,2.8,0.6,5.7,1.3,8.6c0.6,2.9,1.4,5.6,2.3,8c0.9,2.4,1.9,4.4,3,5.9&#10;&#9;&#9;c1.1,1.5,2.3,2.3,3.5,2.4c1.1,0.1,2.1-0.5,2.9-1.8c0.8-1.2,1.4-3,1.9-5.2c0.5-2.2,0.8-4.8,0.8-7.8c0.1-3-0.1-6.2-0.4-9.7&#10;&#9;&#9;c-0.3-2.8-0.7-5.9-1.4-9.1c-0.7-3.3-1.4-6.3-2.3-9c-0.9-2.8-1.9-5.1-3-6.9c-1.1-1.8-2.2-2.8-3.2-2.8&#10;&#9;&#9;C225.4,162.5,224.4,163.4,223.6,165.2z" style="fill: rgb(94, 58, 25);"/>
	<path class="st3" d="M275.6,199.5c0.5,3.3,1,6.5,1.4,9.7c0.1,1-0.1,1.7-0.4,2.1c-0.3,0.4-1.1,0.7-2.2,0.7c-1.4,0-2.6,0.1-3.7,0.2&#10;&#9;&#9;c-1.1,0.1-2.1,0-3.2-0.2c-1.1-0.3-2-0.9-2.6-1.6c-0.6-0.8-1.1-1.9-1.5-3.4c-0.3-1.2-0.7-2.9-1.3-5.2c-0.6-2.3-1.2-4.9-1.9-7.8&#10;&#9;&#9;c-0.7-2.9-1.4-6-2.2-9.3c-0.8-3.3-1.5-6.7-2.2-10c-0.7-3.4-1.4-6.6-1.9-9.8c-0.6-3.2-1-6.1-1.4-8.6c-0.3-2.6-0.5-4.8-0.4-6.5&#10;&#9;&#9;c0-1.8,0.3-3,0.8-3.6c2.4-2.5,5-5.1,7.7-7.6c2.7-2.6,5.5-4.7,8.4-6.3c2.9-1.7,5.8-2.7,8.7-3.1c2.9-0.4,5.8,0.3,8.7,2&#10;&#9;&#9;c2.4,1.6,4.6,3.3,6.8,5.3c2.1,2,4.2,4.6,6.1,7.9c1.8,3.5,2.6,6.7,2.3,9.4c-0.4,4.4-1.9,8.8-4.7,13.3c-2.7,4.5-6.3,9-10.7,13.5&#10;&#9;&#9;c1.6,1.1,3.3,2.2,5.1,3.4c1.8,1.2,3.7,2.4,5.6,3.5c1.9,1.2,3.8,2.3,5.6,3.3c1.8,1.1,3.5,2,5.1,2.7c1.3,0.6,1.9,1.2,2,1.8&#10;&#9;&#9;c0.1,0.6-0.1,1.3-0.6,2.2c-0.6,1.1-1.2,1.8-1.7,2.1c-0.5,0.3-1.2,0.7-2,1.2c-0.9,0.7-2,1.2-3.3,1.4c-1.3,0.3-3,0.1-5-0.5&#10;&#9;&#9;c-1.4-0.5-3-1.2-4.9-2.1c-1.9-0.9-3.8-1.9-5.9-3c-2-1.1-4.1-2.3-6.2-3.6c-2.1-1.3-4-2.6-5.9-4C274.6,192.8,275.1,196.2,275.6,199.5&#10;&#9;&#9;z M271.4,162.5c0.4,3.5,0.7,7.2,1,11.2c2.8-2.4,5.2-4.9,7.1-7.6c1.9-2.7,3.4-5.3,4.5-7.8c1.1-2.5,1.7-4.7,1.9-6.7&#10;&#9;&#9;c0.2-2,0-3.4-0.6-4.2c-1.1-1.4-3-1.6-5.8-0.7c-1.4,0.5-2.8,1.1-4.3,2.1c-1.5,0.9-3,2.2-4.5,3.9C270.7,155.8,271,159.1,271.4,162.5z&#10;&#9;&#9;" style="fill: rgb(94, 58, 25);"/>
	<path class="st3" d="M327.2,182.5c0.5,3.3,1,6.5,1.4,9.7c0.1,1-0.1,1.7-0.4,2.1c-0.3,0.4-1.1,0.7-2.2,0.7c-1.4,0-2.6,0.1-3.7,0.2&#10;&#9;&#9;c-1.1,0.1-2.1,0-3.2-0.2c-1.1-0.3-2-0.9-2.6-1.6c-0.6-0.8-1.1-1.9-1.5-3.4c-0.3-1.2-0.7-2.9-1.3-5.2c-0.6-2.3-1.2-4.9-1.9-7.8&#10;&#9;&#9;c-0.7-2.9-1.4-6-2.2-9.3c-0.8-3.3-1.5-6.7-2.2-10c-0.7-3.4-1.4-6.6-1.9-9.8c-0.6-3.2-1-6.1-1.4-8.6c-0.3-2.6-0.5-4.8-0.4-6.5&#10;&#9;&#9;c0-1.8,0.3-3,0.8-3.6c2.4-2.5,5-5.1,7.7-7.6c2.7-2.6,5.5-4.7,8.4-6.3c2.9-1.7,5.8-2.7,8.7-3.1c2.9-0.4,5.8,0.3,8.7,2&#10;&#9;&#9;c2.4,1.6,4.6,3.3,6.8,5.3c2.1,2,4.2,4.6,6.1,7.9c1.8,3.5,2.6,6.7,2.3,9.4c-0.4,4.4-1.9,8.8-4.7,13.3c-2.7,4.5-6.3,9-10.7,13.5&#10;&#9;&#9;c1.6,1.1,3.3,2.2,5.1,3.4c1.8,1.2,3.7,2.4,5.6,3.5c1.9,1.2,3.8,2.3,5.6,3.3c1.8,1.1,3.5,2,5.1,2.7c1.3,0.6,1.9,1.2,2,1.8&#10;&#9;&#9;c0.1,0.6-0.1,1.3-0.6,2.2c-0.6,1.1-1.2,1.8-1.7,2.1c-0.5,0.3-1.2,0.7-2,1.2c-0.9,0.7-2,1.2-3.3,1.4c-1.3,0.3-3,0.1-5-0.5&#10;&#9;&#9;c-1.4-0.5-3-1.2-4.9-2.1c-1.9-0.9-3.8-1.9-5.9-3c-2-1.1-4.1-2.3-6.2-3.6s-4-2.6-5.9-4C326.2,175.8,326.7,179.2,327.2,182.5z&#10;&#9;&#9; M322.9,145.5c0.4,3.5,0.7,7.2,1,11.2c2.8-2.4,5.2-4.9,7.1-7.6c1.9-2.7,3.4-5.3,4.5-7.8c1.1-2.5,1.7-4.7,1.9-6.7&#10;&#9;&#9;c0.2-2,0-3.4-0.6-4.2c-1.1-1.4-3-1.6-5.8-0.7c-1.4,0.5-2.8,1.1-4.3,2.1c-1.5,0.9-3,2.2-4.5,3.9&#10;&#9;&#9;C322.3,138.8,322.6,142.1,322.9,145.5z" style="fill: rgb(94, 58, 25);"/>
	<path class="st3" d="M395.9,113.2c-0.6,3.6-1.2,7.6-2,11.9c-0.8,4.3-1.7,8.7-2.6,13.3c-1,4.6-1.9,9-2.8,13.2&#10;&#9;&#9;c0.4,4,0.9,7.7,1.4,11.1c0.5,3.4,1,6.7,1.4,9.9c0.1,1.2,0,2-0.3,2.3c-0.4,0.4-1.2,0.6-2.5,0.7c-1.2,0-2.6,0-3.9,0&#10;&#9;&#9;c-1.4-0.1-2.7-0.2-3.9-0.3c-1.3-0.4-2.2-1-2.8-1.6c-0.6-0.6-1.1-1.7-1.4-3.2c-0.5-2.5-1.1-5.4-1.8-8.6c-0.8-3.2-1.5-6.9-2.2-10.9&#10;&#9;&#9;c-2.1-3-4.3-6.2-6.7-9.6c-2.4-3.4-4.7-6.7-7.1-10.1c-2.4-3.4-4.7-6.7-6.9-10c-2.2-3.2-4.3-6.3-6.2-9.1c-1-1.3-1.5-2.3-1.4-2.9&#10;&#9;&#9;c0.1-0.6,0.7-1.3,1.8-1.9c1.4-0.6,2.8-1.2,4.1-1.7s2.8-0.8,4.3-0.9c1.5-0.1,2.8,0.2,3.7,0.9c0.9,0.7,2.1,1.7,3.4,3.3&#10;&#9;&#9;c2.2,3,4.6,6.4,7.2,10.3c2.6,3.9,5.3,8,8.2,12.4c1-5.6,1.9-11.4,2.7-17.2c0.8-5.8,1.6-11.7,2.3-17.7c0-1.5,0.4-2.5,1.3-2.9&#10;&#9;&#9;c0.9-0.4,2-0.4,3.3-0.2c1.3,0.3,2.7,0.8,4.1,1.5c1.4,0.7,2.6,1.4,3.7,1.9c0.6,0.5,1.1,0.9,1.6,1.4c0.4,0.5,0.7,1,0.9,1.5&#10;&#9;&#9;c0.2,0.6,0.3,1.2,0.3,1.9c0,0.7,0,1.6,0,2.6C396.8,106.5,396.4,109.6,395.9,113.2z" style="fill: rgb(94, 58, 25);"/>
</g>
<radialGradient id="SVGID_3_" cx="640.7183" cy="383.0833" r="241.9019" gradientUnits="userSpaceOnUse">
	<stop offset="0" style="stop-color:#F4EB30"/>
	<stop offset="0.5645" style="stop-color:#F4E62F"/>
	<stop offset="0.6672" style="stop-color:#F4E42E"/>
	<stop offset="0.7566" style="stop-color:#F5DD2B"/>
	<stop offset="0.8412" style="stop-color:#F6D126"/>
	<stop offset="0.9222" style="stop-color:#F7C120"/>
	<stop offset="1" style="stop-color:#FAAC1A"/>
</radialGradient>
<path d="M 882.600006 383.100006 A 241.899994 241.899994 0 0 1 640.700012 625 A 241.899994 241.899994 0 0 1 398.800018 383.100006 A 241.899994 241.899994 0 0 1 640.700012 141.200012 A 241.899994 241.899994 0 0 1 882.600006 383.100006 Z" class="st5" style="fill: url('#SVGID_3_');" transform="matrix(1, 0, 0, 1, -49.51690673828125, 79.22705841064453)"/>
<path class="st6" d="M640.7,159.3c131.1,0,237.9,104.3,241.8,234.5c0.1-2.5,0.1-4.9,0.1-7.4c0-133.6-108.3-241.9-241.9-241.9&#10;&#9;S398.8,252.9,398.8,386.5c0,2.5,0,4.9,0.1,7.4C402.8,263.7,509.6,159.3,640.7,159.3z" style="opacity: 0.26; fill: rgb(255, 255, 255);" transform="matrix(1, 0, 0, 1, -49.51690673828125, 79.22705841064453)"/>
<g transform="matrix(1, 0, 0, 1, -49.51690673828125, 79.22705841064453)">
	<g>
		<path d="M 589.800011 342.100006 A 32.599998 41.299999 0 0 1 557.200012 383.400005 A 32.599998 41.299999 0 0 1 524.600014 342.100006 A 32.599998 41.299999 0 0 1 557.200012 300.800007 A 32.599998 41.299999 0 0 1 589.800011 342.100006 Z" class="st0" style="fill: rgb(255, 255, 255);"/>
		<path d="M 589.800011 332.5 A 32.599998 41.299999 0 0 1 557.200012 373.799999 A 32.599998 41.299999 0 0 1 524.600014 332.5 A 32.599998 41.299999 0 0 1 557.200012 291.200001 A 32.599998 41.299999 0 0 1 589.800011 332.5 Z" class="st3" style="fill: rgb(94, 58, 25);"/>
	</g>
	<g>
		<path d="M 756.800011 342.100006 A 32.599998 41.299999 0 0 1 724.200012 383.400005 A 32.599998 41.299999 0 0 1 691.600014 342.100006 A 32.599998 41.299999 0 0 1 724.200012 300.800007 A 32.599998 41.299999 0 0 1 756.800011 342.100006 Z" class="st0" style="fill: rgb(255, 255, 255);"/>
		<path d="M 756.800011 332.5 A 32.599998 41.299999 0 0 1 724.200012 373.799999 A 32.599998 41.299999 0 0 1 691.600014 332.5 A 32.599998 41.299999 0 0 1 724.200012 291.200001 A 32.599998 41.299999 0 0 1 756.800011 332.5 Z" class="st3" style="fill: rgb(94, 58, 25);"/>
	</g>
</g>
<linearGradient id="SVGID_4_" gradientUnits="userSpaceOnUse" x1="640.7183" y1="172.7459" x2="640.7183" y2="381.7326">
	<stop offset="0" style="stop-color:#FFFFFF"/>
	<stop offset="1" style="stop-color:#FFFFFF;stop-opacity:0"/>
</linearGradient>
<path d="M 809.900009 277.200012 A 169.199997 104.5 0 0 1 640.700012 381.700012 A 169.199997 104.5 0 0 1 471.500015 277.200012 A 169.199997 104.5 0 0 1 640.700012 172.700012 A 169.199997 104.5 0 0 1 809.900009 277.200012 Z" class="st7" style="fill: url('#SVGID_4_');" transform="matrix(1, 0, 0, 1, -49.51690673828125, 79.22705841064453)"/>
<g transform="matrix(1, 0, 0, 1, -49.51690673828125, 79.22705841064453)">
	<path class="st0" d="M513.5,538.8c30.2-36.7,75.9-60.2,127.2-60.2c51.3,0,97,23.5,127.2,60.2h11.2c-29.3-45.4-80.3-75.5-138.4-75.5&#10;&#9;&#9;c-58.1,0-109.1,30.1-138.4,75.5H513.5z" style="fill: rgb(255, 255, 255);"/>
	<path class="st3" d="M513.5,532.6c30.2-36.7,75.9-60.2,127.2-60.2c51.3,0,97,23.5,127.2,60.2h11.2c-29.3-45.4-80.3-75.5-138.4-75.5&#10;&#9;&#9;c-58.1,0-109.1,30.1-138.4,75.5H513.5z" style="fill: rgb(94, 58, 25);"/>
</g>
<g transform="matrix(1, 0, 0, 1, -49.51690673828125, 79.22705841064453)">
	<g>
		<path class="st0" d="M718.3,272.5c12.7-2.4,26.3,0.7,37,9.6c10.7,8.9,16.1,21.8,16,34.7l2.3,1.9c1.8-14.6-3.6-29.7-15.7-39.8&#10;&#9;&#9;&#9;c-12.1-10.1-27.9-12.7-41.9-8.3L718.3,272.5z" style="fill: rgb(255, 255, 255);"/>
		<path class="st3" d="M719.4,271.2c12.7-2.4,26.3,0.7,37,9.6c10.7,8.9,16.1,21.8,16,34.7l2.3,1.9c1.8-14.6-3.6-29.7-15.7-39.8&#10;&#9;&#9;&#9;c-12.1-10.1-27.9-12.7-41.9-8.3L719.4,271.2z" style="fill: rgb(94, 58, 25);"/>
	</g>
	<g>
		<path class="st0" d="M563.1,272.5c-12.7-2.4-26.3,0.7-37,9.6c-10.7,8.9-16.1,21.8-16,34.7l-2.3,1.9c-1.8-14.6,3.6-29.7,15.7-39.8&#10;&#9;&#9;&#9;c12.1-10.1,27.9-12.7,41.9-8.3L563.1,272.5z" style="fill: rgb(255, 255, 255);"/>
		<path class="st3" d="M562,271.2c-12.7-2.4-26.3,0.7-37,9.6c-10.7,8.9-16.1,21.8-16,34.7l-2.3,1.9c-1.8-14.6,3.6-29.7,15.7-39.8&#10;&#9;&#9;&#9;c12.1-10.1,27.9-12.7,41.9-8.3L562,271.2z" style="fill: rgb(94, 58, 25);"/>
	</g>
</g>
<g transform="matrix(1, 0, 0, 1, -49.51690673828125, 79.22705841064453)">
	<g>
		<radialGradient id="SVGID_5_" cx="377.9469" cy="443.5567" r="79.1997" gradientUnits="userSpaceOnUse">
			<stop offset="0" style="stop-color:#F4EB30"/>
			<stop offset="0.5645" style="stop-color:#F4E62F"/>
			<stop offset="0.6672" style="stop-color:#F4E42E"/>
			<stop offset="0.7566" style="stop-color:#F5DD2B"/>
			<stop offset="0.8412" style="stop-color:#F6D126"/>
			<stop offset="0.9222" style="stop-color:#F7C120"/>
			<stop offset="1" style="stop-color:#FAAC1A"/>
		</radialGradient>
		<path d="M 457.099991 443.600006 A 79.199997 79.199997 0 0 1 377.899994 522.800003 A 79.199997 79.199997 0 0 1 298.699997 443.600006 A 79.199997 79.199997 0 0 1 377.899994 364.400009 A 79.199997 79.199997 0 0 1 457.099991 443.600006 Z" class="st8" style="fill: url('#SVGID_5_');"/>
		<path class="st6" d="M377.9,370.3c42.9,0,77.9,34.2,79.2,76.8c0-0.8,0-1.6,0-2.4c0-43.7-35.5-79.2-79.2-79.2s-79.2,35.5-79.2,79.2&#10;&#9;&#9;&#9;c0,0.8,0,1.6,0,2.4C300.1,404.5,335,370.3,377.9,370.3z" style="opacity: 0.26; fill: rgb(255, 255, 255);"/>
		<linearGradient id="SVGID_6_" gradientUnits="userSpaceOnUse" x1="377.9469" y1="374.6914" x2="377.9469" y2="443.1144">
			<stop offset="0" style="stop-color:#FFFFFF"/>
			<stop offset="1" style="stop-color:#FFFFFF;stop-opacity:0"/>
		</linearGradient>
		<path d="M 433.299995 408.899994 A 55.400002 34.200001 0 0 1 377.899994 443.099995 A 55.400002 34.200001 0 0 1 322.499992 408.899994 A 55.400002 34.200001 0 0 1 377.899994 374.699993 A 55.400002 34.200001 0 0 1 433.299995 408.899994 Z" class="st9" style="fill: url('#SVGID_6_');"/>
	</g>
	<g>
		<radialGradient id="SVGID_7_" cx="903.4896" cy="443.5567" r="79.1997" gradientUnits="userSpaceOnUse">
			<stop offset="0" style="stop-color:#F4EB30"/>
			<stop offset="0.5645" style="stop-color:#F4E62F"/>
			<stop offset="0.6672" style="stop-color:#F4E42E"/>
			<stop offset="0.7566" style="stop-color:#F5DD2B"/>
			<stop offset="0.8412" style="stop-color:#F6D126"/>
			<stop offset="0.9222" style="stop-color:#F7C120"/>
			<stop offset="1" style="stop-color:#FAAC1A"/>
		</radialGradient>
		<path d="M 982.699997 443.600006 A 79.199997 79.199997 0 0 1 903.5 522.800003 A 79.199997 79.199997 0 0 1 824.300003 443.600006 A 79.199997 79.199997 0 0 1 903.5 364.400009 A 79.199997 79.199997 0 0 1 982.699997 443.600006 Z" class="st10" style="fill: url('#SVGID_7_');"/>
		<path class="st6" d="M903.5,370.3c42.9,0,77.9,34.2,79.2,76.8c0-0.8,0-1.6,0-2.4c0-43.7-35.5-79.2-79.2-79.2s-79.2,35.5-79.2,79.2&#10;&#9;&#9;&#9;c0,0.8,0,1.6,0,2.4C825.6,404.5,860.6,370.3,903.5,370.3z" style="opacity: 0.26; fill: rgb(255, 255, 255);"/>
		<linearGradient id="SVGID_8_" gradientUnits="userSpaceOnUse" x1="903.4896" y1="374.6914" x2="903.4896" y2="443.1144">
			<stop offset="0" style="stop-color:#FFFFFF"/>
			<stop offset="1" style="stop-color:#FFFFFF;stop-opacity:0"/>
		</linearGradient>
		<path d="M 958.900002 408.899994 A 55.400002 34.200001 0 0 1 903.5 443.099995 A 55.400002 34.200001 0 0 1 848.099998 408.899994 A 55.400002 34.200001 0 0 1 903.5 374.699993 A 55.400002 34.200001 0 0 1 958.900002 408.899994 Z" class="st11" style="fill: url('#SVGID_8_');"/>
	</g>
</g>

<path d="M 117.32689666748047 358.96942138671875 C 117.32689666748047 358.96942138671875 139.77456665039062 358.96942138671875 117.32689666748047 358.96942138671875 C 94.87922668457031 358.96942138671875 138.45413208007812 393.3011474609375 197.87440490722656 458.00323486328125 C 257.294677734375 522.705322265625 57.9066047668457 394.62158203125 57.9066047668457 394.62158203125 L 156.94041442871094 625.7005004882812 L -117.54830169677734 136.30836486816406 L -122.49999237060547 283.2085266113281 L -195.12478637695312 131.35667419433594" style="fill: rgb(255, 255, 255); fill-opacity: 1; stroke: rgb(0, 0, 0); stroke-opacity: 1; stroke-width: 0; paint-order: fill;" transform="matrix(1, 0, 0, 1, -49.51690673828125, 79.22705841064453)"/></svg>